<svg xmlns="http://www.w3.org/2000/svg" viewBox="0 0 17.25 5.79"><defs><style>.cls-1{fill:#231f20;}</style></defs><g id="Layer_2" data-name="Layer 2"><g id="Layer_1-2" data-name="Layer 1"><path class="cls-1" d="M4.8,1.6A2,2,0,0,0,4.51.8c-.15-.2-.3-.27-1-.27h-.6V4.71c0,.68.08.78.91.83v.25H1.25V5.54c.81,0,.88-.14.88-.83V.53H1.62C.86.53.68.62.56.8a2.85,2.85,0,0,0-.3.8H0C0,1,.08.47.1,0H.29c.13.22.24.22.5.22H4.34A.47.47,0,0,0,4.79,0H5c0,.39,0,1.05.09,1.57Z"/><path class="cls-1" d="M8.43,5.79V5.54c.54-.07.62-.15.5-.5s-.28-.76-.47-1.25H6.58c-.15.39-.26.72-.37,1.06-.19.52-.12.62.54.69v.25H4.82V5.54c.56-.08.69-.14,1-.91L7.66.16,8,.09c.57,1.52,1.13,3,1.71,4.54.28.76.4.85,1,.91v.25ZM7.56,1.27h0C7.27,2,7,2.71,6.73,3.4h1.6Z"/><path class="cls-1" d="M17.08,5.79H14.89l-.05-.15a5.26,5.26,0,0,0,1.18-3C16,1.29,15.33.39,14.23.39s-1.8.87-1.8,2.33a5.62,5.62,0,0,0,1.18,2.92l0,.15h-2.2l-.16-1.3h.24c.21.56.33.64.69.64h.78a3.46,3.46,0,0,1-1.44-2.41A2.62,2.62,0,0,1,14.24.08,2.54,2.54,0,0,1,17,2.67a3.73,3.73,0,0,1-1.44,2.45h.76c.4,0,.49,0,.71-.64h.25Z"/></g></g></svg>